{
    "programs": [

    ],
    "streams": [
        {
            "index": 0,
            "codec_name": "h264",
            "codec_long_name": "H.264 / AVC / MPEG-4 AVC / MPEG-4 part 10",
            "profile": "Baseline",
            "codec_type": "video",
            "codec_time_base": "2121/127150",
            "codec_tag_string": "avc1",
            "codec_tag": "0x31637661",
            "width": 1280,
            "height": 720,
            "coded_width": 1280,
            "coded_height": 720,
            "has_b_frames": 0,
            "sample_aspect_ratio": "0:1",
            "display_aspect_ratio": "0:1",
            "pix_fmt": "yuv420p",
            "level": 31,
            "color_range": "tv",
            "color_space": "bt709",
            "color_transfer": "bt709",
            "color_primaries": "bt709",
            "chroma_location": "left",
            "refs": 1,
            "is_avc": "true",
            "nal_length_size": "4",
            "r_frame_rate": "30000/1001",
            "avg_frame_rate": "63575/2121",
            "time_base": "1/600",
            "start_pts": 0,
            "start_time": "0:00:00.000000",
            "duration_ts": 50904,
            "duration": "0:01:24.840000",
            "bit_rate": "9745776",
            "bits_per_raw_sample": "8",
            "nb_frames": "2543",
            "disposition": {
                "default": 1,
                "dub": 0,
                "original": 0,
                "comment": 0,
                "lyrics": 0,
                "karaoke": 0,
                "forced": 0,
                "hearing_impaired": 0,
                "visual_impaired": 0,
                "clean_effects": 0,
                "attached_pic": 0,
                "timed_thumbnails": 0
            },
            "tags": {
                "rotate": "180",
                "creation_time": "2016-12-27T19:48:56.000000Z",
                "language": "und",
                "handler_name": "Core Media Data Handler",
                "encoder": "H.264"
            },
            "side_data_list": [
                {
                    "side_data_type": "Display Matrix",
                    "displaymatrix": "\n00000000:       -65536           0           0\n00000001:            0      -65536           0\n00000002:     83886080    47185920  1073741824\n",
                    "rotation": -180
                }
            ]
        },
        {
            "index": 1,
            "codec_name": "aac",
            "codec_long_name": "AAC (Advanced Audio Coding)",
            "profile": "LC",
            "codec_type": "audio",
            "codec_time_base": "1/44100",
            "codec_tag_string": "mp4a",
            "codec_tag": "0x6134706d",
            "sample_fmt": "fltp",
            "sample_rate": "44100",
            "channels": 1,
            "channel_layout": "mono",
            "bits_per_sample": 0,
            "r_frame_rate": "0/0",
            "avg_frame_rate": "0/0",
            "time_base": "1/44100",
            "start_pts": -1,
            "start_time": "0:00:-0.000023",
            "duration_ts": 3741444,
            "duration": "0:01:24.840000",
            "bit_rate": "64282",
            "max_bit_rate": "64000",
            "nb_frames": "3656",
            "disposition": {
                "default": 1,
                "dub": 0,
                "original": 0,
                "comment": 0,
                "lyrics": 0,
                "karaoke": 0,
                "forced": 0,
                "hearing_impaired": 0,
                "visual_impaired": 0,
                "clean_effects": 0,
                "attached_pic": 0,
                "timed_thumbnails": 0
            },
            "tags": {
                "creation_time": "2016-12-27T19:48:56.000000Z",
                "language": "und",
                "handler_name": "Core Media Data Handler"
            }
        },
        {
            "index": 2,
            "codec_type": "data",
            "codec_tag_string": "mebx",
            "codec_tag": "0x7862656d",
            "r_frame_rate": "0/0",
            "avg_frame_rate": "0/0",
            "time_base": "1/600",
            "start_pts": 0,
            "start_time": "0:00:00.000000",
            "duration_ts": 50904,
            "duration": "0:01:24.840000",
            "bit_rate": "7251",
            "nb_frames": "730",
            "disposition": {
                "default": 1,
                "dub": 0,
                "original": 0,
                "comment": 0,
                "lyrics": 0,
                "karaoke": 0,
                "forced": 0,
                "hearing_impaired": 0,
                "visual_impaired": 0,
                "clean_effects": 0,
                "attached_pic": 0,
                "timed_thumbnails": 0
            },
            "tags": {
                "creation_time": "2016-12-27T19:48:56.000000Z",
                "language": "und",
                "handler_name": "Core Media Data Handler"
            }
        },
        {
            "index": 3,
            "codec_type": "data",
            "codec_tag_string": "mebx",
            "codec_tag": "0x7862656d",
            "r_frame_rate": "0/0",
            "avg_frame_rate": "0/0",
            "time_base": "1/600",
            "start_pts": 0,
            "start_time": "0:00:00.000000",
            "duration_ts": 50904,
            "duration": "0:01:24.840000",
            "nb_frames": "1",
            "disposition": {
                "default": 1,
                "dub": 0,
                "original": 0,
                "comment": 0,
                "lyrics": 0,
                "karaoke": 0,
                "forced": 0,
                "hearing_impaired": 0,
                "visual_impaired": 0,
                "clean_effects": 0,
                "attached_pic": 0,
                "timed_thumbnails": 0
            },
            "tags": {
                "creation_time": "2016-12-27T19:48:56.000000Z",
                "language": "und",
                "handler_name": "Core Media Data Handler"
            }
        }
    ],
    "chapters": [

    ],
    "format": {
        "filename": "2016/12/2016_12_27_19:48:56_0000.mov",
        "nb_streams": 4,
        "nb_programs": 0,
        "format_name": "mov,mp4,m4a,3gp,3g2,mj2",
        "format_long_name": "QuickTime / MOV",
        "start_time": "0:00:-0.000023",
        "duration": "0:01:24.840000",
        "size": "104206659",
        "bit_rate": "9826181",
        "probe_score": 100,
        "tags": {
            "major_brand": "qt  ",
            "minor_version": "0",
            "compatible_brands": "qt  ",
            "creation_time": "2016-12-27T19:48:56.000000Z",
            "com.apple.quicktime.make": "Apple",
            "com.apple.quicktime.model": "iPad mini 2",
            "com.apple.quicktime.software": "9.3.2",
            "com.apple.quicktime.creationdate": "2016-12-27T14:48:56-0500"
        }
    }
}
